<svg xmlns="http://www.w3.org/2000/svg" width="1024" height="1024" viewBox="0 0 1024 1024">
<g>
<path d="M 300.29 486.94 C289.17,489.72 279.43,492.00 278.64,492.00 C276.70,492.00 276.31,490.69 274.88,479.20 C273.91,471.46 273.90,466.63 274.80,457.36 C278.02,424.48 294.42,395.37 322.72,372.30 C331.82,364.89 351.36,352.99 349.50,356.00 C348.91,356.95 349.11,357.17 350.16,356.77 C351.73,356.17 352.04,358.51 350.68,360.71 C350.19,361.50 351.13,361.98 353.64,362.19 C356.71,362.45 357.62,363.09 359.16,366.06 C360.17,368.02 363.97,372.07 367.60,375.06 C371.22,378.05 375.08,382.22 376.16,384.33 C377.24,386.44 379.52,388.92 381.22,389.83 C385.38,392.08 396.00,401.97 396.00,403.60 C396.00,405.98 398.30,410.00 399.66,410.00 C400.40,410.00 401.00,410.45 401.00,411.00 C401.00,411.55 401.79,412.86 402.75,413.92 C403.71,414.98 406.75,418.38 409.50,421.48 C412.25,424.58 415.85,427.97 417.50,429.01 C419.15,430.05 421.40,432.28 422.50,433.97 C423.78,435.93 425.85,437.40 428.23,438.05 C432.61,439.24 434.72,442.16 432.52,443.98 C431.73,444.64 430.55,444.84 429.89,444.43 C429.22,444.02 428.95,444.11 429.28,444.65 C430.16,446.07 425.20,448.36 409.00,454.05 C376.61,465.42 330.49,479.38 300.29,486.94 ZM 268.50 515.88 C247.78,518.24 243.90,518.03 239.87,514.38 C234.64,509.65 234.75,509.58 254.30,505.58 C271.73,502.02 277.96,500.49 322.00,488.93 C361.08,478.68 430.19,455.65 469.77,439.69 C470.57,439.37 471.33,439.06 472.05,438.77 C480.68,435.28 483.99,433.94 486.11,435.00 C487.60,435.75 488.50,437.71 490.25,440.96 C492.31,444.80 494.00,448.35 494.00,448.86 C494.00,451.11 440.93,472.78 411.44,482.56 C365.81,497.71 306.19,511.61 268.50,515.88 ZM 230.50 703.12 C225.01,705.64 216.52,705.54 211.97,702.91 C203.07,697.74 200.03,685.65 203.62,669.70 C208.31,648.89 221.12,635.22 238.93,632.01 C245.66,630.79 267.61,631.52 270.07,633.04 C271.11,633.69 270.94,636.06 269.19,645.17 C265.12,666.36 263.77,675.49 263.63,682.83 C263.51,689.51 263.72,690.34 265.98,692.18 C267.85,693.69 269.41,694.07 272.23,693.70 C274.31,693.42 276.00,693.58 276.00,694.06 C276.00,695.84 269.42,702.34 266.30,703.65 C262.01,705.44 256.60,705.36 252.91,703.45 C249.28,701.58 246.01,696.50 246.00,692.75 C246.00,691.24 245.80,690.00 245.56,690.00 C245.31,690.00 242.73,692.54 239.81,695.64 C236.89,698.75 232.70,702.11 230.50,703.12 ZM 169.62 704.55 C152.76,709.91 134.59,707.72 125.76,699.27 C120.46,694.19 121.23,686.22 127.49,681.44 C132.39,677.70 135.33,678.19 138.34,683.25 C141.81,689.08 145.66,692.96 149.61,694.61 C159.68,698.82 172.15,692.60 175.02,681.94 C177.32,673.40 173.45,666.49 161.13,657.09 C141.63,642.22 138.48,637.61 139.21,624.97 C139.62,617.92 140.06,616.48 143.38,611.49 C150.85,600.24 165.91,593.58 184.00,593.53 C200.30,593.48 207.00,596.88 207.00,605.19 C207.00,609.62 202.66,615.22 197.98,616.86 C195.33,617.78 194.82,617.61 193.26,615.33 C192.29,613.91 189.91,610.97 187.96,608.78 C185.06,605.51 183.61,604.71 179.83,604.28 C173.55,603.58 168.80,605.37 164.57,610.06 C161.58,613.36 161.00,614.74 161.00,618.55 C161.00,626.30 163.67,629.64 179.21,641.32 C188.56,648.35 195.46,655.83 197.05,660.66 C198.87,666.16 197.81,679.59 195.17,684.72 C190.29,694.17 181.96,700.64 169.62,704.55 ZM 280.43 406.28 C278.47,409.98 276.67,413.00 276.44,413.00 C276.20,413.00 274.32,410.25 272.25,406.89 C270.19,403.53 265.64,396.38 262.14,391.00 L 255.79 381.21 L 249.14 380.80 C232.92,379.80 218.23,366.24 212.60,347.07 C209.20,335.51 211.57,324.06 218.19,320.02 C220.69,318.50 223.25,318.01 228.59,318.00 C237.95,318.00 245.61,321.72 254.48,330.59 C267.10,343.21 271.77,359.66 266.54,373.07 C266.14,374.10 269.02,378.55 274.95,386.07 C279.91,392.35 283.97,397.96 283.98,398.53 C283.99,399.10 282.39,402.59 280.43,406.28 ZM 374.20 704.88 C367.72,706.25 365.80,706.21 359.80,704.60 C352.29,702.58 347.56,698.84 344.43,692.45 C342.05,687.57 341.67,685.61 341.70,678.15 C341.77,662.73 346.15,651.03 355.43,641.53 C363.39,633.37 369.88,630.66 382.50,630.23 C390.66,629.95 393.14,630.22 395.98,631.69 C401.16,634.38 404.00,639.25 404.00,645.45 C404.00,657.87 391.61,667.39 369.75,671.76 L 362.00 673.32 L 362.00 677.91 C362.00,683.27 364.42,688.57 368.10,691.26 C373.28,695.06 383.13,693.23 390.98,687.01 C397.17,682.11 401.13,683.36 397.35,689.03 C391.75,697.42 383.86,702.83 374.20,704.88 ZM 528.46 559.06 C527.78,560.16 525.50,560.16 522.00,559.05 C520.62,558.61 514.10,556.55 507.50,554.47 C500.90,552.39 484.92,546.76 472.00,541.96 C441.78,530.73 429.52,526.66 413.50,522.53 C396.20,518.07 371.79,514.08 354.50,512.90 C348.74,512.50 371.32,510.04 390.50,508.97 C420.11,507.31 447.83,509.08 474.50,514.32 C479.48,515.30 480.55,515.87 480.81,517.70 C480.99,518.91 481.92,520.16 482.90,520.47 C483.87,520.78 486.38,523.00 488.47,525.40 C492.03,529.50 492.52,529.74 496.29,529.23 C499.05,528.86 500.10,529.04 499.63,529.79 C499.26,530.39 499.55,531.24 500.28,531.69 C501.01,532.13 502.68,534.08 504.00,536.00 C505.32,537.92 506.68,539.72 507.01,540.00 C507.34,540.28 508.39,541.62 509.33,543.00 C510.27,544.38 513.39,546.63 516.27,548.01 C519.20,549.41 521.38,551.09 521.23,551.83 C521.07,552.56 521.33,552.91 521.80,552.63 C522.26,552.34 523.37,552.87 524.25,553.80 C525.14,554.74 526.58,556.09 527.45,556.81 C528.33,557.53 528.78,558.54 528.46,559.06 ZM 308.93 700.24 C304.79,704.56 303.95,704.99 299.93,704.94 C299.54,704.93 299.17,704.93 298.81,704.92 C296.40,704.90 294.72,704.89 293.43,704.17 C290.26,702.41 289.47,696.38 286.06,675.50 C284.26,664.50 281.55,650.55 280.02,644.50 C278.49,638.45 277.43,633.18 277.66,632.79 C279.05,630.39 292.54,629.15 296.15,631.08 C299.56,632.91 300.71,637.70 302.96,659.50 C304.15,671.05 305.45,682.06 305.84,683.97 L 306.56 687.43 L 311.29 680.31 C320.50,666.46 325.42,652.41 325.47,639.80 C325.50,630.19 325.62,630.04 332.83,630.01 C337.01,630.00 342.00,634.61 342.00,638.50 C342.00,649.63 322.43,686.17 308.93,700.24 ZM 467.50 554.58 C481.61,559.57 482.20,559.88 477.50,559.85 C468.29,559.77 453.73,556.97 421.00,548.97 C371.09,536.77 352.18,534.28 317.50,535.32 C296.60,535.95 271.98,539.09 259.51,542.71 C257.80,543.21 257.70,543.07 258.81,541.73 C259.52,540.87 264.89,538.07 270.74,535.51 C289.08,527.48 308.38,523.36 332.50,522.34 C362.95,521.04 392.07,526.96 437.00,543.55 C445.52,546.70 459.25,551.66 467.50,554.58 ZM 307.53 371.42 C305.13,373.39 302.93,375.00 302.65,375.00 C302.10,375.00 298.00,364.48 298.00,363.05 C298.00,362.57 297.04,359.66 295.86,356.59 C293.97,351.66 293.30,350.89 290.08,350.02 C286.12,348.96 281.14,344.32 278.67,339.42 C276.25,334.61 267.92,307.04 267.29,301.77 C266.83,297.88 267.03,296.92 268.46,296.38 C270.64,295.54 271.07,296.23 275.63,308.00 C281.43,322.97 282.82,326.00 283.88,326.00 C286.06,326.00 285.68,323.85 280.92,309.46 C278.20,301.23 276.20,293.91 276.48,293.18 C276.76,292.45 278.01,292.00 279.25,292.18 C281.14,292.45 282.43,294.84 287.34,307.25 C291.00,316.48 293.71,322.00 294.59,322.00 C296.84,322.00 296.33,319.35 291.27,304.71 C287.20,292.92 286.73,290.78 288.01,289.98 C288.83,289.46 289.95,289.17 290.50,289.33 C292.15,289.82 297.64,300.71 303.18,314.50 C309.30,329.74 310.04,336.87 306.18,343.41 C304.03,347.07 304.02,347.14 305.84,352.30 C306.85,355.16 308.63,359.83 309.79,362.67 L 311.91 367.84 ZM 290.00 464.04 C290.00,469.52 290.40,473.00 291.03,473.00 C292.07,473.00 313.27,467.87 313.77,467.50 C313.91,467.39 313.55,463.97 312.96,459.90 C311.41,449.27 311.67,433.53 313.53,424.50 C316.93,408.06 327.40,384.73 335.78,374.94 C342.14,367.51 338.04,369.51 329.39,378.05 C313.97,393.29 301.72,411.97 295.99,429.00 C292.58,439.14 290.00,454.21 290.00,464.04 ZM 403.10 299.63 C398.37,301.58 391.24,305.15 387.25,307.57 C383.26,309.98 380.00,311.50 380.00,310.93 C380.00,310.37 384.84,305.06 390.75,299.14 C402.02,287.84 413.70,279.35 427.20,272.60 C434.30,269.06 435.03,268.89 436.52,270.38 C437.41,271.27 438.56,272.00 439.07,272.00 C439.58,272.00 440.00,272.66 440.00,273.48 C440.00,274.29 442.00,275.86 444.44,276.97 C446.88,278.08 449.16,279.45 449.50,280.00 C449.84,280.55 450.91,281.00 451.88,281.00 C452.85,281.00 455.17,282.37 457.04,284.04 C458.91,285.71 461.46,287.33 462.71,287.64 C463.96,287.96 464.74,288.62 464.43,289.11 C464.13,289.60 464.39,290.00 465.00,290.00 C465.61,290.00 465.86,290.41 465.55,290.91 C465.24,291.42 465.55,292.09 466.24,292.41 C466.93,292.73 464.35,292.66 460.50,292.25 C456.65,291.84 447.65,291.52 440.50,291.54 C426.02,291.59 418.79,293.15 403.10,299.63 ZM 226.26 690.47 C229.24,692.56 231.11,692.40 235.10,689.72 C238.95,687.13 243.22,679.98 245.48,672.32 C247.58,665.23 250.40,646.49 249.66,644.57 C248.80,642.31 238.31,642.41 234.97,644.70 C229.79,648.28 225.58,656.10 223.49,666.05 C220.94,678.16 222.00,687.49 226.26,690.47 ZM 673.45 303.12 C674.99,304.54 672.11,304.05 663.50,301.42 C642.03,294.88 613.03,289.89 587.75,288.40 C581.29,288.02 576.01,287.44 576.03,287.10 C576.05,286.77 580.56,283.23 586.06,279.24 L 596.07 271.97 L 602.28 273.43 C610.53,275.35 630.20,282.17 641.95,287.16 C651.30,291.13 671.61,301.43 673.45,303.12 ZM 700.43 754.92 C690.42,763.72 676.32,751.95 682.52,739.97 C684.65,735.85 689.32,733.66 694.71,734.27 C699.85,734.85 702.50,736.95 704.06,741.69 C705.75,746.79 704.49,751.36 700.43,754.92 ZM 468.60 754.60 C466.06,757.14 464.36,757.99 461.85,757.96 C453.96,757.87 449.00,752.97 449.00,745.27 C449.00,740.55 451.22,737.22 455.60,735.39 C461.22,733.05 464.80,733.60 468.60,737.40 C471.59,740.39 472.00,741.42 472.00,746.00 C472.00,750.58 471.59,751.61 468.60,754.60 ZM 632.73 753.60 C629.40,757.23 628.87,757.44 622.11,757.82 L 615.00 758.23 L 615.00 734.00 L 619.75 734.01 C626.00,734.01 631.28,735.54 633.50,738.00 C634.50,739.10 635.50,742.15 635.76,744.88 C636.20,749.38 635.95,750.08 632.73,753.60 ZM 843.97 745.46 C830.51,746.32 807.97,747.32 793.87,747.67 L 768.23 748.32 L 767.51 746.05 C765.94,741.07 766.37,741.03 809.00,742.02 C830.72,742.52 853.19,742.95 858.92,742.96 C864.65,742.98 869.13,743.20 868.88,743.45 C868.64,743.70 857.42,744.60 843.97,745.46 ZM 493.67 756.06 C488.78,758.28 480.19,758.66 479.43,756.68 C479.15,755.96 479.06,750.67 479.21,744.93 L 479.50 734.50 L 482.44 734.17 C488.24,733.51 494.22,735.07 497.16,738.01 C499.46,740.31 500.00,741.72 500.00,745.49 C500.00,751.60 498.70,753.78 493.67,756.06 ZM 363.36 661.14 L 362.70 665.28 L 366.54 664.56 C372.07,663.52 379.32,659.59 382.34,656.00 C390.93,645.80 385.78,632.21 375.82,638.78 C370.46,642.31 364.73,652.61 363.36,661.14 ZM 716.81 753.75 C716.57,756.71 716.05,757.56 714.34,757.81 C712.92,758.01 712.00,757.49 711.68,756.31 C711.25,754.71 711.32,744.78 711.82,736.63 L 712.00 733.77 L 718.44 734.18 C722.88,734.46 725.53,735.17 726.94,736.45 C728.97,738.28 729.60,742.27 728.38,745.46 C727.58,747.53 722.82,750.00 719.61,750.00 C717.46,750.00 717.08,750.50 716.81,753.75 ZM 659.00 753.00 C659.00,757.18 658.70,758.00 657.17,758.00 C656.16,758.00 655.03,757.70 654.67,757.33 C654.30,756.97 654.00,751.57 654.00,745.33 L 654.00 734.00 L 656.50 734.00 C658.79,734.00 659.00,734.37 659.00,738.45 C659.00,742.75 659.12,742.93 662.49,743.56 C667.88,744.57 669.00,743.70 669.00,738.53 C669.00,734.36 669.20,734.00 671.50,734.00 L 674.00 734.00 L 674.00 746.07 C674.00,758.01 673.98,758.14 671.75,757.82 C669.83,757.55 669.46,756.80 669.20,752.75 L 668.89 748.00 L 659.00 748.00 ZM 751.82 755.25 C751.52,757.33 750.92,757.52 743.87,757.79 C743.44,757.81 743.02,757.82 742.63,757.84 C739.63,757.97 737.87,758.04 736.82,757.22 C735.17,755.92 735.25,752.42 735.07,743.47 L 734.88 734.00 L 742.94 734.00 C750.87,734.00 751.00,734.04 751.00,736.50 C751.00,738.84 750.67,739.00 745.93,739.00 C741.25,739.00 740.89,739.17 741.18,741.25 C741.44,743.06 742.24,743.56 745.25,743.81 C748.19,744.05 749.00,744.54 749.00,746.06 C749.00,747.66 748.29,748.00 745.00,748.00 C741.40,748.00 741.00,748.25 741.00,750.50 C741.00,752.87 741.30,753.00 746.57,753.00 C751.77,753.00 752.12,753.15 751.82,755.25 ZM 608.00 756.12 C608.00,757.79 607.18,758.00 600.67,758.00 C596.63,758.00 593.03,757.70 592.67,757.33 C592.30,756.97 592.00,751.57 592.00,745.33 L 592.00 734.00 L 600.07 734.00 C607.87,734.00 608.13,734.08 607.82,736.25 C607.54,738.21 606.83,738.54 602.19,738.80 C597.36,739.08 596.90,739.31 597.19,741.30 C597.44,743.11 598.25,743.55 601.75,743.81 C605.19,744.06 606.00,744.49 606.00,746.06 C606.00,747.69 605.29,748.00 601.50,748.00 C597.37,748.00 597.00,748.20 597.00,750.50 C597.00,752.65 597.45,753.00 600.25,753.01 C605.45,753.04 608.00,754.06 608.00,756.12 ZM 585.00 756.05 C585.00,757.80 584.26,758.00 577.67,758.00 C573.63,758.00 570.03,757.70 569.67,757.33 C569.30,756.97 569.00,751.84 569.00,745.94 C569.00,745.54 569.00,745.15 569.00,744.77 C568.99,739.00 568.99,736.32 570.33,735.07 C571.49,733.99 573.66,733.99 577.71,734.00 C578.01,734.00 578.33,734.00 578.65,734.00 C584.81,734.00 585.12,734.12 584.82,736.25 C584.55,738.17 583.80,738.54 579.75,738.80 C575.46,739.08 575.00,739.35 575.00,741.55 C575.00,743.74 575.42,744.00 579.00,744.00 C582.33,744.00 583.00,744.33 583.00,746.00 C583.00,747.67 582.33,748.00 578.93,748.00 C575.09,748.00 574.88,748.15 575.18,750.75 C575.47,753.27 575.90,753.53 580.25,753.80 C584.18,754.06 585.00,754.44 585.00,756.05 ZM 355.08 755.08 C352.78,757.37 351.26,758.00 348.00,758.00 C344.74,758.00 343.22,757.37 340.92,755.08 C338.12,752.28 338.00,751.78 338.00,743.08 C338.00,734.06 338.02,734.00 340.50,734.00 C342.97,734.00 343.00,734.10 343.00,742.44 C343.00,750.03 343.22,751.04 345.22,752.44 C350.58,756.19 353.00,753.26 353.00,743.04 C353.00,736.81 353.32,735.09 354.59,734.60 C357.44,733.51 358.00,734.99 358.00,743.64 C358.00,751.72 357.85,752.30 355.08,755.08 ZM 438.98 755.37 C433.91,759.63 427.45,758.70 422.67,753.02 C417.91,747.37 419.53,739.03 426.01,735.73 C429.99,733.71 436.12,733.81 436.81,735.91 C437.13,736.89 436.76,737.12 435.58,736.67 C434.59,736.29 434.15,736.43 434.51,737.01 C434.84,737.56 434.07,738.00 432.78,738.00 C429.52,738.00 426.35,740.47 425.56,743.63 C424.00,749.81 429.90,755.61 434.61,752.52 C436.85,751.06 437.58,749.39 438.22,744.28 C438.70,740.47 441.12,743.28 441.64,748.23 C442.06,752.31 441.82,752.98 438.98,755.37 ZM 552.80 752.75 C552.55,756.65 552.13,757.55 550.46,757.79 C549.34,757.95 548.10,757.77 547.71,757.38 C547.32,756.99 547.00,751.57 547.00,745.33 L 547.00 734.00 L 555.07 734.00 C562.87,734.00 563.13,734.08 562.82,736.25 C562.55,738.17 561.80,738.54 557.75,738.80 C553.46,739.08 553.00,739.35 553.00,741.55 C553.00,743.74 553.42,744.00 557.00,744.00 C560.33,744.00 561.00,744.33 561.00,746.00 C561.00,747.66 560.33,748.00 557.05,748.00 L 553.11 748.00 ZM 405.00 753.00 C404.59,756.72 404.11,757.56 402.25,757.82 C400.03,758.13 400.00,757.98 400.00,747.07 C400.00,740.98 399.89,735.66 399.75,735.25 C399.61,734.84 403.02,734.37 407.33,734.21 C414.98,733.92 415.14,733.96 414.83,736.21 C414.55,738.18 413.83,738.54 409.75,738.80 C405.51,739.08 405.00,739.36 405.00,741.48 C405.00,743.28 405.70,743.99 407.92,744.48 C412.17,745.42 412.68,747.81 408.70,748.19 C405.71,748.48 405.47,748.79 405.00,753.00 ZM 456.45 751.55 C459.65,754.74 462.34,754.65 465.02,751.25 C467.60,747.98 467.24,741.38 464.38,739.29 C457.54,734.29 450.34,745.43 456.45,751.55 ZM 691.00 753.31 C695.58,754.94 699.00,751.81 699.00,746.00 C699.00,739.31 694.14,736.11 689.22,739.56 C687.52,740.75 687.00,742.11 687.00,745.37 C687.00,749.71 688.33,752.35 691.00,753.31 ZM 484.74 753.41 C485.15,753.82 486.84,753.89 488.49,753.56 C493.61,752.56 496.16,747.20 493.83,742.32 C492.71,739.98 491.77,739.45 488.24,739.19 L 484.00 738.89 L 484.00 745.78 C484.00,749.57 484.33,753.00 484.74,753.41 ZM 620.72 753.39 C621.73,754.40 626.16,753.15 628.25,751.27 C630.20,749.51 630.59,743.97 628.96,740.93 C628.21,739.52 626.86,739.00 623.96,739.00 L 620.00 739.00 L 620.00 745.83 C620.00,749.59 620.32,752.99 620.72,753.39 ZM 236.95 371.03 C238.96,372.10 242.61,372.93 245.38,372.96 L 250.27 373.00 L 243.37 369.55 C234.33,365.03 229.00,360.34 223.88,352.43 C221.58,348.88 219.49,346.18 219.23,346.43 C218.98,346.69 220.13,349.82 221.80,353.38 C225.23,360.73 231.70,368.26 236.95,371.03 ZM 377.00 746.00 C378.09,746.70 377.19,746.97 373.77,746.98 C368.01,747.00 365.69,744.35 366.19,738.33 L 366.50 734.50 L 373.49 734.50 C379.26,734.50 380.53,734.79 380.80,736.20 C381.07,737.59 380.18,737.95 375.81,738.20 C370.89,738.48 370.50,738.69 370.50,741.00 C370.50,743.15 371.06,743.59 374.50,744.11 C376.70,744.44 377.83,744.79 377.00,744.87 C375.67,745.01 375.67,745.14 377.00,746.00 ZM 527.62 748.46 C524.91,752.60 518.00,750.87 518.00,746.05 C518.00,742.51 519.71,741.00 523.72,741.00 C528.20,741.00 530.11,744.66 527.62,748.46 ZM 330.46 756.65 C329.45,757.39 326.85,758.00 324.69,758.00 C321.46,758.00 320.07,757.31 316.88,754.12 C314.10,751.34 313.02,749.42 313.07,747.37 C313.13,744.91 313.25,744.78 313.95,746.50 C314.39,747.60 314.51,748.91 314.22,749.40 C313.93,749.90 314.20,749.99 314.83,749.60 C315.46,749.22 317.99,750.08 320.47,751.53 C323.80,753.48 325.72,754.00 327.89,753.53 C331.49,752.73 333.12,754.71 330.46,756.65 ZM 406.62 272.84 C400.85,279.21 398.54,276.14 403.10,268.16 C405.88,263.28 407.91,261.05 408.09,262.69 C408.78,269.26 408.58,270.68 406.62,272.84 ZM 381.00 755.59 C381.00,756.68 379.28,757.00 373.50,757.00 C367.02,757.00 366.00,756.76 366.02,755.25 C366.04,752.29 367.66,750.48 369.17,751.70 C369.90,752.29 372.86,753.09 375.75,753.48 C379.26,753.95 381.00,754.65 381.00,755.59 ZM 331.36 737.52 C331.04,738.33 330.27,738.92 329.64,738.83 C329.01,738.73 326.59,738.48 324.25,738.27 C321.91,738.06 320.00,737.43 320.00,736.88 C320.00,736.33 319.44,736.20 318.75,736.59 C317.81,737.12 317.78,736.99 318.63,736.07 C321.60,732.84 332.67,734.10 331.36,737.52 ZM 502.00 520.40 C502.00,521.30 487.66,520.52 486.69,519.56 C486.04,518.90 484.60,517.85 483.50,517.22 C482.30,516.52 482.05,516.05 482.88,516.03 C484.38,516.00 502.00,520.02 502.00,520.40 ZM 717.70 745.36 C718.08,745.75 719.02,745.82 719.78,745.53 C720.54,745.24 721.53,745.00 721.97,745.00 C723.17,745.00 724.02,742.23 723.36,740.50 C723.03,739.64 721.54,739.00 719.89,739.00 C717.38,739.00 717.00,739.38 717.00,741.83 C717.00,743.39 717.31,744.98 717.70,745.36 ZM 284.00 755.50 C284.00,756.63 282.80,757.00 279.17,757.00 C276.51,757.00 274.03,756.70 273.67,756.33 C272.01,754.67 273.40,754.00 278.50,754.00 C282.72,754.00 284.00,754.35 284.00,755.50 ZM 284.00 736.50 C284.00,737.65 282.74,738.00 278.67,738.00 C274.59,738.00 273.33,737.65 273.33,736.50 C273.33,735.35 274.59,735.00 278.67,735.00 C282.74,735.00 284.00,735.35 284.00,736.50 ZM 306.32 737.60 C305.79,738.98 304.13,739.20 300.81,738.32 C298.17,737.63 299.86,735.00 302.94,735.00 C306.16,735.00 307.06,735.69 306.32,737.60 ZM 549.60 564.28 C552.85,565.11 545.76,564.86 542.20,564.01 C536.83,562.74 537.43,562.16 544.14,562.13 C547.99,562.11 549.92,562.43 549.08,562.95 C548.00,563.62 548.11,563.90 549.60,564.28 ZM 295.50 756.00 C295.84,756.55 295.22,757.00 294.12,757.00 C291.65,757.00 290.40,755.20 291.85,753.75 C292.63,752.97 293.58,752.98 295.22,753.76 C296.47,754.37 296.91,754.90 296.19,754.93 C295.47,754.97 295.16,755.45 295.50,756.00 ZM 279.64 745.50 C278.82,746.33 277.44,747.00 276.57,747.00 C275.71,747.00 275.00,746.33 275.00,745.50 C275.00,744.49 276.01,744.00 278.07,744.00 C280.80,744.00 280.98,744.17 279.64,745.50 Z" fill="rgb(25,105,35)"/>
<path d="M 406.62 272.84 C408.58,270.68 408.78,269.26 408.09,262.69 C407.91,261.05 405.88,263.28 403.10,268.16 C399.44,274.56 400.20,277.80 403.63,275.55 C403.13,275.95 402.65,276.35 402.20,276.73 C399.29,279.21 396.67,281.00 396.38,280.72 C395.65,279.98 400.43,270.73 405.81,262.50 C422.78,236.49 444.66,218.65 470.50,209.72 C488.38,203.54 497.21,203.10 552.35,205.63 C579.69,206.89 599.01,202.61 614.75,191.82 C619.82,188.34 619.89,188.61 616.96,200.33 C612.33,218.82 608.66,227.48 599.49,241.61 C582.76,267.38 554.93,285.63 520.92,293.13 C506.01,296.42 482.13,296.41 462.52,293.10 C459.24,292.55 456.11,292.11 453.10,291.78 C456.16,291.91 458.82,292.07 460.50,292.25 C464.35,292.66 466.93,292.73 466.24,292.41 C465.55,292.09 465.24,291.42 465.55,290.91 C465.86,290.41 465.61,290.00 465.00,290.00 C464.39,290.00 464.13,289.60 464.43,289.11 C464.74,288.62 463.96,287.96 462.71,287.64 C461.46,287.33 458.91,285.71 457.04,284.04 C455.17,282.37 452.85,281.00 451.88,281.00 C450.91,281.00 449.84,280.55 449.50,280.00 C449.16,279.45 446.88,278.08 444.44,276.97 C442.00,275.86 440.00,274.29 440.00,273.48 C440.00,272.66 439.58,272.00 439.07,272.00 C438.56,272.00 437.41,271.27 436.52,270.38 C435.03,268.89 434.30,269.06 427.20,272.60 C418.44,276.98 410.46,282.09 402.85,288.22 C405.30,286.13 407.46,284.42 409.00,283.38 C439.13,263.01 470.18,251.05 533.00,235.60 L 543.50 233.01 L 531.50 233.57 C494.93,235.26 461.69,242.78 436.50,255.06 C426.22,260.07 413.17,268.15 405.04,274.44 C405.53,273.99 406.06,273.46 406.62,272.84 ZM 410.67 453.46 C425.54,448.20 430.13,446.02 429.28,444.65 C428.95,444.11 429.22,444.02 429.89,444.43 C430.55,444.84 431.73,444.64 432.52,443.98 C434.72,442.16 432.61,439.24 428.23,438.05 C425.85,437.40 423.78,435.93 422.50,433.97 C421.40,432.28 419.15,430.05 417.50,429.01 C415.85,427.97 412.25,424.58 409.50,421.48 C406.75,418.38 403.71,414.98 402.75,413.92 C401.79,412.86 401.00,411.55 401.00,411.00 C401.00,410.45 400.40,410.00 399.66,410.00 C398.30,410.00 396.00,405.98 396.00,403.60 C396.00,401.97 385.38,392.08 381.22,389.83 C379.52,388.92 377.24,386.44 376.16,384.33 C375.08,382.22 371.22,378.05 367.60,375.06 C363.97,372.07 360.17,368.02 359.16,366.06 C357.62,363.09 356.71,362.45 353.64,362.19 C351.13,361.98 350.19,361.50 350.68,360.71 C352.04,358.51 351.73,356.17 350.16,356.77 C349.11,357.17 348.91,356.95 349.50,356.00 C351.12,353.37 336.41,362.12 326.60,369.32 C331.34,365.55 335.81,362.32 339.00,360.50 C341.88,358.85 346.04,356.42 348.24,355.11 L 352.23 352.72 L 348.37 351.40 C343.65,349.79 340.00,345.80 340.00,342.25 C340.00,338.09 344.65,332.35 350.31,329.53 C358.62,325.39 371.45,326.51 373.38,331.54 C374.42,334.27 374.08,338.88 372.55,342.53 C371.75,344.44 371.33,346.00 371.60,346.00 C371.87,346.00 377.36,345.05 383.80,343.90 C393.65,342.13 398.11,341.87 412.00,342.28 C426.47,342.71 429.92,343.16 440.00,345.91 C450.90,348.89 472.19,358.38 477.76,362.75 L 480.02 364.52 L 478.41 375.01 C476.31,388.74 477.00,402.28 480.49,415.39 C481.94,420.82 482.75,425.65 482.29,426.11 C480.94,427.46 439.22,443.51 416.00,451.61 C414.23,452.23 412.45,452.85 410.67,453.46 ZM 528.46 559.06 C528.78,558.54 528.33,557.53 527.45,556.81 C526.58,556.09 525.14,554.74 524.25,553.80 C523.37,552.87 522.26,552.34 521.80,552.63 C521.33,552.91 521.07,552.56 521.23,551.83 C521.38,551.09 519.20,549.41 516.27,548.01 C513.39,546.63 510.27,544.38 509.33,543.00 C508.39,541.62 507.34,540.28 507.01,540.00 C506.68,539.72 505.32,537.92 504.00,536.00 C502.68,534.08 501.01,532.13 500.28,531.69 C499.55,531.24 499.26,530.39 499.63,529.79 C500.10,529.04 499.05,528.86 496.29,529.23 C492.52,529.74 492.03,529.50 488.47,525.40 C486.38,523.00 483.87,520.78 482.90,520.47 C481.92,520.16 480.99,518.91 480.81,517.70 C480.55,515.87 479.48,515.30 474.50,514.32 C473.22,514.07 471.95,513.83 470.66,513.59 C471.27,513.69 471.89,513.80 472.50,513.90 C484.17,515.89 489.19,516.92 517.00,523.01 C550.58,530.37 571.10,533.00 594.92,533.00 C621.50,533.00 651.92,527.46 671.39,519.06 C674.08,517.90 676.53,517.19 676.82,517.49 C677.71,518.37 675.15,520.42 671.71,521.58 C669.63,522.28 668.39,523.43 668.18,524.82 C667.90,526.75 668.20,526.91 671.07,526.34 C674.22,525.71 674.26,525.75 673.79,528.97 C673.33,532.12 673.53,532.36 678.90,534.83 C681.98,536.25 685.61,537.28 686.96,537.11 C688.70,536.89 690.11,537.64 691.71,539.65 C693.99,542.49 694.01,542.49 697.08,540.75 C698.78,539.79 701.50,539.00 703.13,539.00 C704.76,539.00 707.43,538.31 709.05,537.47 C713.48,535.18 712.60,536.28 707.25,539.72 C687.80,552.21 654.55,563.65 626.52,567.48 C613.06,569.32 586.88,570.05 574.14,568.93 C557.83,567.50 543.00,564.87 524.73,559.74 C526.69,560.07 527.98,559.84 528.46,559.06 ZM 456.00 374.93 C461.23,378.24 465.87,380.95 466.32,380.97 C467.53,381.01 466.05,377.03 463.32,372.91 C457.47,364.06 441.13,354.52 426.79,351.58 C422.26,350.65 414.64,350.04 408.29,350.10 L 397.50 350.21 L 404.50 351.92 C421.72,356.14 437.26,363.08 456.00,374.93 ZM 228.39 746.43 C227.88,747.77 225.68,747.98 213.64,747.84 C196.59,747.65 178.10,746.77 152.00,744.91 L 132.50 743.52 L 144.50 742.90 C151.10,742.56 172.32,741.95 191.66,741.54 C226.31,740.82 226.84,740.84 227.91,742.83 C228.51,743.95 228.72,745.56 228.39,746.43 ZM 249.00 754.06 C249.00,757.60 248.74,758.00 246.50,758.00 L 244.00 758.00 L 244.00 733.77 L 251.12 734.18 C257.09,734.51 258.55,734.96 260.12,736.90 C262.52,739.86 262.51,743.08 260.10,746.15 C258.21,748.55 258.22,748.61 260.59,752.54 C263.66,757.60 263.62,758.00 260.01,758.00 C257.59,758.00 256.77,757.39 255.67,754.75 C254.08,750.95 251.53,748.56 250.04,749.47 C249.47,749.83 249.00,751.89 249.00,754.06 ZM 285.00 755.50 C285.00,757.96 284.87,758.00 277.00,758.00 L 269.00 758.00 L 269.00 734.00 L 277.00 734.00 C284.87,734.00 285.00,734.04 285.00,736.50 C285.00,738.83 284.67,739.00 280.00,739.00 C275.67,739.00 275.00,739.27 275.00,741.00 C275.00,742.67 275.67,743.00 279.00,743.00 C282.60,743.00 283.00,743.25 283.00,745.50 C283.00,747.80 282.63,748.00 278.50,748.00 C274.37,748.00 274.00,748.20 274.00,750.50 C274.00,752.86 274.30,753.00 279.50,753.00 C284.70,753.00 285.00,753.14 285.00,755.50 ZM 295.50 756.00 C295.16,755.45 295.47,754.97 296.19,754.93 C296.91,754.90 296.47,754.37 295.22,753.76 C294.84,753.59 294.51,753.45 294.20,753.35 C294.69,753.30 295.24,753.27 295.85,753.27 C303.50,753.27 303.96,751.03 297.04,747.52 C292.07,745.00 288.61,740.96 290.80,740.23 C291.40,740.03 291.66,739.27 291.38,738.54 C290.08,735.15 300.34,732.51 305.03,735.02 C305.17,735.09 305.30,735.17 305.43,735.25 C304.84,735.08 304.02,735.00 302.94,735.00 C299.86,735.00 298.17,737.63 300.81,738.32 L 300.91 738.35 C295.72,737.98 295.72,741.35 301.75,744.23 C305.13,745.85 306.60,747.18 306.83,748.85 C307.39,752.75 306.19,755.59 303.48,756.83 C300.12,758.36 295.07,758.31 292.71,756.77 C293.12,756.92 293.59,757.00 294.12,757.00 C295.22,757.00 295.84,756.55 295.50,756.00 ZM 377.00 746.00 C375.67,745.14 375.67,745.01 377.00,744.87 C377.83,744.79 376.70,744.44 374.50,744.11 C371.06,743.59 370.50,743.15 370.50,741.00 C370.50,738.69 370.89,738.48 375.81,738.20 C379.46,737.99 380.68,737.70 380.83,736.80 C381.11,738.83 380.71,739.00 376.07,739.00 C371.67,739.00 371.00,739.26 371.00,741.00 C371.00,742.65 371.67,743.00 374.83,743.00 C379.32,743.00 379.96,743.44 379.27,746.06 C378.88,747.56 377.89,748.00 374.88,748.00 C371.41,748.00 371.00,748.26 371.00,750.50 C371.00,752.87 371.30,753.00 376.57,753.00 C381.77,753.00 382.12,753.15 381.82,755.25 C381.52,757.33 380.92,757.52 373.96,757.79 C369.81,757.95 366.09,757.76 365.71,757.37 C365.32,756.98 365.00,751.55 365.00,745.29 L 365.00 733.92 L 372.75 734.21 C377.36,734.38 379.25,734.52 380.10,735.15 C379.23,734.63 377.38,734.50 373.49,734.50 L 366.50 734.50 L 366.19 738.33 C365.69,744.35 368.01,747.00 373.77,746.98 C377.19,746.97 378.09,746.70 377.00,746.00 ZM 325.45 738.38 C322.31,738.57 319.68,740.42 318.73,743.30 C317.56,746.84 319.07,750.36 321.78,752.26 C321.36,752.05 320.93,751.80 320.47,751.53 C317.99,750.08 315.46,749.22 314.83,749.60 C314.20,749.99 313.93,749.90 314.22,749.40 C314.51,748.91 314.39,747.60 313.95,746.50 C313.25,744.78 313.13,744.91 313.07,747.37 C313.02,749.42 314.10,751.34 316.88,754.12 C317.54,754.77 318.12,755.32 318.65,755.78 C318.14,755.39 317.60,754.92 317.00,754.38 C313.47,751.20 313.00,750.24 313.00,746.32 C313.00,739.71 315.07,736.40 320.39,734.93 C319.67,735.22 319.06,735.60 318.63,736.07 C317.78,736.99 317.81,737.12 318.75,736.59 C319.44,736.20 320.00,736.33 320.00,736.88 C320.00,737.43 321.91,738.06 324.25,738.27 C324.65,738.30 325.06,738.34 325.45,738.38 ZM 440.48 737.57 C444.24,741.63 444.45,747.78 441.52,752.46 C441.90,751.48 441.85,750.29 441.64,748.23 C441.12,743.28 438.70,740.47 438.22,744.28 C437.98,746.22 437.72,747.66 437.37,748.79 C437.63,747.45 437.50,745.85 436.99,743.95 C435.70,739.18 432.72,737.23 429.42,738.87 C430.46,738.32 431.61,738.00 432.78,738.00 C434.07,738.00 434.84,737.56 434.51,737.01 C434.15,736.43 434.59,736.29 435.58,736.67 C436.76,737.12 437.13,736.89 436.81,735.91 C436.12,733.81 429.99,733.71 426.01,735.73 C424.07,736.71 422.57,738.15 421.54,739.84 C422.99,736.94 425.63,735.16 429.50,734.43 C434.17,733.56 437.69,734.56 440.48,737.57 ZM 381.00 755.59 C381.00,754.65 379.26,753.95 375.75,753.48 C372.86,753.09 369.90,752.29 369.17,751.70 C367.66,750.48 366.04,752.29 366.02,755.25 C366.00,756.76 367.02,757.00 373.50,757.00 C379.28,757.00 381.00,756.68 381.00,755.59 ZM 502.00 520.40 C502.00,520.02 484.38,516.00 482.88,516.03 C482.05,516.05 482.30,516.52 483.50,517.22 C484.60,517.85 486.04,518.90 486.69,519.56 C487.66,520.52 502.00,521.30 502.00,520.40 ZM 249.36 743.50 C249.68,744.33 250.74,744.99 251.72,744.98 C256.69,744.94 257.60,739.74 252.74,739.18 C249.82,738.85 248.31,740.77 249.36,743.50 ZM 284.00 755.50 C284.00,754.35 282.72,754.00 278.50,754.00 C273.40,754.00 272.01,754.67 273.67,756.33 C274.03,756.70 276.51,757.00 279.17,757.00 C282.80,757.00 284.00,756.63 284.00,755.50 ZM 284.00 736.50 C284.00,735.35 282.74,735.00 278.67,735.00 C274.59,735.00 273.33,735.35 273.33,736.50 C273.33,737.65 274.59,738.00 278.67,738.00 C282.74,738.00 284.00,737.65 284.00,736.50 ZM 549.60 564.28 C548.11,563.90 548.00,563.62 549.08,562.95 C549.92,562.43 547.99,562.11 544.14,562.13 C537.43,562.16 536.83,562.74 542.20,564.01 C545.76,564.86 552.85,565.11 549.60,564.28 ZM 335.78 374.94 C334.22,376.77 332.58,379.06 330.94,381.70 C331.77,380.22 332.64,378.71 333.54,377.15 L 336.08 372.81 L 333.21 374.85 C331.83,375.84 328.36,379.11 325.06,382.51 C326.47,381.00 327.92,379.51 329.39,378.05 C338.04,369.51 342.14,367.51 335.78,374.94 ZM 279.64 745.50 C280.98,744.17 280.80,744.00 278.07,744.00 C276.01,744.00 275.00,744.49 275.00,745.50 C275.00,746.33 275.71,747.00 276.57,747.00 C277.44,747.00 278.82,746.33 279.64,745.50 ZM 405.92 743.73 C406.51,743.95 407.47,744.00 409.00,744.00 C412.29,744.00 413.00,744.34 413.00,745.94 C413.00,747.46 412.19,747.95 409.25,748.19 C407.60,748.33 406.67,748.43 406.10,748.91 C406.61,748.45 407.39,748.32 408.70,748.19 C412.68,747.81 412.17,745.42 407.92,744.48 C407.02,744.29 406.38,744.05 405.92,743.73 ZM 429.15 508.81 C416.59,508.17 403.73,508.23 390.50,508.97 C381.65,509.46 372.07,510.25 364.89,511.00 C371.85,510.24 380.98,509.43 389.00,508.95 C402.91,508.13 415.93,508.06 429.15,508.81 ZM 304.85 409.71 C300.00,418.43 296.25,427.60 293.73,436.89 C294.42,434.07 295.18,431.40 295.99,429.00 C298.11,422.71 301.12,416.19 304.85,409.71 ZM 413.50 522.53 C429.52,526.66 441.78,530.73 472.00,541.96 C484.92,546.76 500.90,552.39 507.50,554.47 C511.15,555.62 514.78,556.77 517.53,557.63 C503.84,553.51 488.09,548.02 468.50,540.71 C442.00,530.81 429.16,526.57 413.50,522.53 ZM 322.36 398.19 C318.45,407.04 315.17,416.57 313.53,424.50 C315.36,415.66 318.02,407.56 322.36,398.19 ZM 289.42 411.04 C281.34,425.34 276.41,440.88 274.80,457.36 C276.44,440.65 281.22,425.42 289.42,411.04 ZM 408.60 297.43 C415.63,294.73 420.98,293.20 426.71,292.37 C420.83,293.40 414.93,295.07 408.60,297.43 ZM 389.09 300.81 C384.01,305.98 380.08,310.33 380.00,310.92 C380.08,309.99 384.02,305.75 389.09,300.81 ZM 300.29 486.94 C316.64,482.84 337.65,476.88 358.63,470.46 C337.54,476.96 317.55,482.62 300.29,486.94 ZM 427.34 740.45 C425.42,742.62 424.96,745.94 425.87,748.68 C425.28,747.17 425.11,745.41 425.56,743.63 C425.86,742.44 426.49,741.35 427.34,740.45 ZM 422.56 752.89 C420.83,750.83 420.18,749.72 420.11,747.66 C420.46,749.52 421.28,751.35 422.62,752.96 ZM 438.98 755.37 C439.27,755.12 439.53,754.89 439.77,754.68 C439.37,755.08 438.95,755.47 438.49,755.83 C436.60,757.32 434.45,758.04 432.26,758.02 C434.59,757.99 436.90,757.11 438.98,755.37 ZM 331.56 754.12 C331.13,753.52 330.05,753.20 328.54,753.41 C330.06,753.10 331.16,753.46 331.56,754.12 ZM 306.32 737.60 C306.45,737.27 306.53,736.98 306.55,736.72 C306.64,737.20 306.47,737.67 306.09,738.03 C306.19,737.90 306.26,737.76 306.32,737.60 ZM 308.47 385.47 C307.03,386.99 305.63,388.52 304.28,390.08 C306.42,387.62 307.40,386.57 308.47,385.47 ZM 378.74 515.66 C390.86,517.48 403.39,519.92 413.50,522.53 C403.45,519.94 390.85,517.48 378.74,515.66 ZM 324.81 758.00 L 324.75 758.00 C326.89,757.99 329.45,757.39 330.46,756.65 C329.44,757.39 326.90,758.00 324.81,758.00 ZM 291.41 754.36 C291.29,754.60 291.23,754.84 291.24,755.08 C291.19,754.81 291.24,754.57 291.41,754.36 ZM 353.94 512.84 C354.08,512.86 354.27,512.88 354.50,512.90 C355.35,512.96 356.21,513.02 357.09,513.09 C356.21,513.02 355.34,512.96 354.50,512.90 C354.25,512.89 354.07,512.87 353.94,512.84 ZM 405.00 741.48 C405.00,740.75 405.06,740.24 405.31,739.87 C405.06,740.24 405.00,740.76 405.00,741.51 Z" fill="rgb(96,141,25)"/>
<path d="M 621.32 499.25 C620.74,515.61 620.55,517.00 618.85,517.00 C617.14,517.00 617.00,515.95 617.00,503.22 C617.00,467.84 611.61,456.12 588.50,441.22 C583.00,437.67 575.35,431.74 571.50,428.03 C560.98,417.91 554.70,415.48 551.54,420.30 C547.60,426.31 556.53,440.02 573.29,453.73 C577.11,456.86 579.73,459.59 579.11,459.80 C577.43,460.36 564.95,455.35 559.65,451.99 C546.08,443.39 535.60,428.30 524.58,401.50 C519.85,390.00 516.72,386.00 512.44,386.00 C511.10,386.00 509.04,386.96 507.87,388.13 C506.00,390.00 505.81,391.02 506.32,396.38 C507.47,408.32 515.63,429.59 525.85,447.25 C531.28,456.64 531.24,458.44 525.75,452.02 C520.70,446.13 513.42,432.70 509.83,422.67 C507.31,415.62 506.47,414.19 505.70,415.57 C505.17,416.52 505.00,420.42 505.32,424.28 C506.08,433.28 513.21,448.17 522.09,459.28 C529.66,468.74 544.79,481.84 560.72,492.73 C567.78,497.55 573.10,501.92 573.81,503.47 C574.46,504.91 574.96,508.44 574.92,511.30 C574.84,516.07 574.74,516.29 573.66,514.00 C571.01,508.39 569.06,506.50 559.50,500.27 C526.18,478.56 508.24,457.64 496.32,426.58 C479.46,382.66 492.78,341.46 528.79,326.16 C538.51,322.03 544.82,320.78 555.79,320.80 C578.59,320.85 599.05,330.15 612.05,346.38 L 617.26 352.87 L 621.60 347.53 C648.42,314.61 702.81,316.76 731.14,351.85 C742.42,365.83 747.05,378.42 747.76,397.00 C748.20,408.26 747.98,410.49 745.58,419.49 C738.32,446.75 722.92,468.51 697.50,487.45 C685.06,496.72 679.09,500.47 670.63,504.32 C670.27,504.49 669.93,504.64 669.61,504.79 C665.89,506.49 664.63,507.07 664.20,506.69 C663.99,506.50 663.99,506.06 664.00,505.40 C664.00,505.29 664.00,505.17 664.00,505.04 C664.00,502.86 665.38,501.71 682.47,489.55 C709.60,470.26 724.33,454.06 731.08,436.09 C733.83,428.75 735.39,419.68 734.49,416.25 L 733.77 413.50 L 732.73 416.00 C727.77,427.89 719.16,443.96 714.05,450.85 C710.65,455.44 707.64,458.98 707.37,458.71 C707.11,458.44 709.85,453.22 713.48,447.10 C723.11,430.89 731.22,410.66 733.45,397.34 C734.47,391.22 732.08,387.00 727.59,387.00 C725.74,387.00 723.28,387.79 722.13,388.75 C720.97,389.71 717.30,396.57 713.97,404.00 C704.01,426.20 699.91,432.86 689.53,443.81 C683.35,450.33 675.37,455.31 665.97,458.51 L 658.84 460.94 L 671.37 448.72 C680.87,439.46 684.52,435.17 686.44,431.00 C690.35,422.53 689.58,418.00 684.25,418.00 C680.47,418.00 676.29,420.68 668.02,428.42 C663.75,432.41 656.84,437.55 652.65,439.85 C642.93,445.19 632.90,454.56 628.51,462.42 C623.54,471.30 622.05,478.97 621.32,499.25 ZM 445.95 704.92 C439.73,706.25 439.42,706.24 434.60,704.52 C428.03,702.18 427.79,700.64 431.58,685.68 C439.11,655.99 445.54,616.43 444.63,605.35 L 444.60 605.03 C444.30,601.32 444.14,599.37 445.03,598.25 C446.04,596.98 448.41,596.79 453.49,596.33 C460.29,595.70 467.21,597.21 469.92,599.92 C471.61,601.61 475.03,609.99 493.27,657.22 C497.25,667.52 500.74,675.96 501.03,675.97 C502.78,676.06 507.99,625.80 508.00,608.87 C508.00,608.42 508.00,607.99 508.00,607.57 C507.99,601.29 507.99,598.42 509.42,597.12 C510.61,596.02 512.80,596.02 516.84,596.02 C517.15,596.01 517.48,596.01 517.83,596.01 C522.39,596.00 523.57,596.42 526.08,598.92 C527.68,600.53 529.00,602.79 529.00,603.95 C529.00,605.11 526.57,620.55 523.61,638.28 C518.07,671.37 515.51,687.63 514.40,696.64 C513.63,702.93 511.91,703.97 500.98,704.73 C489.80,705.51 489.25,704.88 478.10,678.64 C473.12,666.91 466.83,651.29 464.11,643.91 C463.96,643.50 463.82,643.11 463.67,642.72 C461.22,636.05 460.01,632.76 459.20,632.86 C458.36,632.96 457.95,636.67 457.04,644.00 C456.15,651.20 451.00,701.75 451.00,703.31 C451.00,703.60 448.73,704.32 445.95,704.92 ZM 706.18 540.39 C706.54,540.17 706.90,539.94 707.25,539.72 C712.60,536.28 713.48,535.18 709.05,537.47 C707.43,538.31 704.76,539.00 703.13,539.00 C701.50,539.00 698.78,539.79 697.08,540.75 C694.01,542.49 693.99,542.49 691.71,539.65 C690.11,537.64 688.70,536.89 686.96,537.11 C685.61,537.28 681.98,536.25 678.90,534.83 C673.53,532.36 673.33,532.12 673.79,528.97 C674.26,525.75 674.22,525.71 671.07,526.34 C668.20,526.91 667.90,526.75 668.18,524.82 C668.39,523.43 669.63,522.28 671.71,521.58 C675.15,520.42 677.71,518.37 676.82,517.49 C676.53,517.19 674.08,517.90 671.39,519.06 C662.30,522.98 650.82,526.28 638.45,528.68 C641.45,528.08 644.46,527.41 647.50,526.69 C673.30,520.52 699.66,506.67 719.28,488.97 C750.20,461.08 765.37,428.98 766.17,389.75 C766.30,383.29 766.72,378.34 767.10,378.75 C768.45,380.21 772.80,393.63 774.64,402.00 C776.12,408.76 776.48,414.39 776.40,429.50 C776.31,446.80 776.06,449.40 773.61,458.50 C767.76,480.24 754.03,502.63 736.87,518.39 C728.14,526.41 717.71,533.83 706.18,540.39 ZM 598.00 704.36 C590.48,706.82 579.54,708.12 573.00,707.33 C571.08,707.10 566.71,706.00 563.31,704.89 C549.58,700.42 545.82,688.79 555.61,681.09 C559.68,677.89 563.64,678.33 565.95,682.25 C570.05,689.21 572.66,692.06 576.83,694.12 C585.40,698.35 597.17,694.25 601.06,685.68 C603.32,680.70 603.55,673.94 601.58,670.20 C599.95,667.12 591.42,658.76 585.50,654.47 C572.34,644.91 567.03,636.85 567.01,626.45 C566.99,612.09 579.96,598.81 598.23,594.51 C606.36,592.59 619.28,592.60 625.74,594.52 C636.95,597.85 639.25,607.94 630.39,614.91 C625.96,618.39 622.93,617.68 619.59,612.38 C617.98,609.85 615.28,606.92 613.59,605.89 C607.12,601.95 595.96,604.74 591.96,611.29 C589.17,615.87 589.32,623.69 592.28,628.10 C593.54,629.97 598.83,634.74 604.03,638.70 C615.88,647.71 623.58,655.82 624.95,660.74 C625.52,662.81 625.99,667.31 625.99,670.74 C626.01,686.34 615.87,698.52 598.00,704.36 ZM 720.27 308.42 C718.20,311.13 716.05,313.50 715.50,313.67 C714.95,313.85 710.67,310.79 706.00,306.87 C690.76,294.10 671.60,282.73 648.00,272.46 C644.42,270.90 641.36,269.54 641.19,269.42 C641.02,269.31 641.90,267.03 643.14,264.36 C649.01,251.70 668.24,240.00 683.16,240.00 C694.37,240.00 709.23,246.37 716.85,254.45 C724.35,262.40 727.34,269.53 727.83,280.63 C728.33,292.10 725.89,301.10 720.27,308.42 ZM 664.53 704.91 C657.45,706.22 656.76,706.21 650.95,704.64 C645.21,703.09 639.60,699.65 637.11,696.16 C628.97,684.72 631.24,660.72 641.79,646.79 C650.92,634.72 661.11,629.50 675.50,629.51 C681.75,629.51 684.26,629.96 687.00,631.56 C695.39,636.48 697.58,646.55 692.12,655.15 C688.98,660.11 686.13,662.42 678.50,666.25 C673.65,668.68 658.48,673.00 654.81,673.00 C653.33,673.00 653.00,673.82 653.00,677.48 C653.00,683.54 655.45,689.24 658.93,691.30 C664.89,694.82 675.25,692.50 682.66,685.99 C686.33,682.77 686.82,682.60 688.79,683.85 C690.72,685.07 688.83,689.15 683.82,694.58 C678.74,700.10 672.49,703.44 664.53,704.91 ZM 863.50 702.90 C847.96,708.69 833.66,704.77 827.04,692.91 C825.06,689.37 824.50,686.73 824.19,679.50 C823.09,654.11 837.44,634.01 859.61,629.89 C866.90,628.53 873.61,629.25 878.92,631.96 C884.52,634.82 886.43,638.11 886.47,644.98 C886.49,649.58 885.93,651.56 883.50,655.45 C878.56,663.38 867.89,668.87 850.73,672.32 C843.56,673.77 843.04,674.83 845.24,683.46 C846.83,689.71 851.12,693.00 857.68,693.00 C863.05,693.00 867.56,691.19 873.50,686.66 C876.44,684.41 878.73,683.38 880.02,683.71 C882.59,684.39 882.54,684.76 879.14,690.11 C875.46,695.92 869.78,700.56 863.50,702.90 ZM 792.32 699.90 C788.75,703.92 787.92,704.34 782.82,704.77 C775.50,705.37 773.44,703.50 772.47,695.33 C771.40,686.33 764.22,650.46 761.99,642.97 C759.24,633.74 759.37,632.41 763.15,631.10 C766.56,629.91 775.84,629.62 778.46,630.62 C781.66,631.85 783.02,637.21 785.57,658.68 C787.00,670.68 788.48,681.82 788.85,683.44 L 789.54 686.39 L 792.71 681.44 C802.17,666.66 807.06,653.48 807.87,640.50 L 808.50 630.50 L 813.74 630.20 C818.23,629.94 819.35,630.26 821.49,632.40 C824.76,635.67 824.75,639.92 821.43,649.79 C816.74,663.77 802.19,688.81 792.32,699.90 ZM 717.60 704.23 C715.88,705.38 704.72,705.07 702.50,703.81 C698.16,701.34 698.04,698.56 701.42,678.14 C705.48,653.54 706.27,646.12 705.57,638.99 L 704.90 632.19 L 710.00 631.09 C716.41,629.72 718.30,629.72 721.34,631.11 C724.42,632.51 726.00,635.94 726.00,641.22 L 726.00 645.34 L 731.72 639.03 C737.31,632.84 743.34,629.07 747.67,629.02 C748.87,629.01 751.22,630.15 752.89,631.56 C760.68,638.12 756.15,653.00 746.37,653.00 C743.52,653.00 743.00,652.64 743.00,650.70 C743.00,642.25 731.11,645.99 725.97,656.06 C723.50,660.90 720.14,679.62 719.33,693.00 C718.98,698.80 718.21,703.83 717.60,704.23 ZM 846.06 661.25 C845.04,665.76 845.57,665.88 853.54,662.90 C863.31,659.24 869.00,652.55 869.00,644.72 C869.00,641.03 865.97,637.00 863.21,637.00 C856.62,637.02 849.14,647.59 846.06,661.25 ZM 654.43 661.25 C653.64,665.78 654.42,665.94 662.58,662.89 C675.23,658.15 681.99,644.22 674.62,638.10 C672.55,636.38 668.97,637.31 665.10,640.57 C661.65,643.47 655.41,655.56 654.43,661.25 ZM 723.46 235.77 C718.79,241.23 715.00,241.52 715.00,236.42 C715.00,233.18 730.58,214.00 733.21,214.00 C734.61,214.00 734.05,217.99 732.13,221.80 C727.95,230.08 726.93,231.72 723.46,235.77 ZM 762.17 315.68 L 764.35 318.00 L 760.92 317.88 C756.53,317.74 755.07,317.38 746.00,314.30 C736.08,310.93 734.00,309.55 734.00,306.35 C734.00,303.85 734.19,303.76 738.51,304.25 C743.64,304.83 758.90,312.20 762.17,315.68 ZM 747.84 255.48 C738.88,260.16 734.36,261.10 733.36,258.49 C732.50,256.26 734.65,254.20 741.44,250.78 C751.37,245.77 763.00,242.39 763.00,244.51 C763.00,246.05 755.43,251.52 747.84,255.48 ZM 757.17 284.87 C746.48,286.24 743.04,286.25 740.75,284.92 C738.05,283.35 738.59,280.11 741.75,278.87 C745.27,277.49 763.89,278.33 767.03,280.02 C769.17,281.16 769.22,281.37 767.67,282.50 C766.73,283.18 762.01,284.25 757.17,284.87 ZM 696.47 226.05 C693.54,231.72 688.45,228.60 689.57,221.83 C690.79,214.44 692.53,207.92 695.15,200.93 C697.04,195.89 697.97,199.44 697.98,211.80 C698.00,220.00 697.58,223.91 696.47,226.05 ZM 645.83 242.15 C645.60,243.80 644.76,244.59 643.00,244.79 C640.50,245.08 634.74,239.96 627.67,231.17 C624.74,227.52 624.63,227.14 625.90,225.12 C626.60,224.02 627.74,224.41 631.57,227.05 C639.84,232.74 646.21,239.48 645.83,242.15 ZM 667.86 232.11 C667.11,232.58 666.28,232.92 666.00,232.87 C662.48,232.16 661.83,231.19 659.03,222.42 C657.36,217.23 656.00,211.39 656.00,209.45 C656.00,206.39 656.23,206.05 657.77,206.88 C659.81,207.97 667.39,222.83 668.48,227.87 C669.00,230.28 668.82,231.50 667.86,232.11 ZM 630.42 263.39 C629.55,263.73 628.76,263.98 628.67,263.96 C626.79,263.54 614.56,258.82 612.21,257.61 C608.62,255.75 608.29,254.83 610.55,252.96 C611.83,251.90 613.12,251.98 617.80,253.42 C626.79,256.18 632.00,258.95 632.00,260.98 C632.00,261.97 631.29,263.06 630.42,263.39 ZM 710.65 265.34 C712.06,267.23 712.58,267.46 712.85,266.29 C713.23,264.60 710.41,261.26 709.43,262.24 C709.08,262.58 709.64,263.98 710.65,265.34 ZM 578.70 532.55 C560.90,531.53 542.80,528.67 517.00,523.01 C540.66,528.20 560.57,531.36 578.70,532.55 ZM 626.52 567.48 C637.93,565.92 650.21,563.10 662.07,559.46 C650.37,563.13 638.38,565.86 626.52,567.48 Z" fill="rgb(218,97,12)"/>
<path d="M 0.00 512.00 L 0.00 0.00 L 512.00 0.00 L 1024.00 0.00 L 1024.00 512.00 L 1024.00 1024.00 L 512.00 1024.00 L 0.00 1024.00 L 0.00 512.00 ZM 249.00 754.06 C249.00,751.89 249.47,749.83 250.04,749.47 C251.53,748.56 254.08,750.95 255.67,754.75 C256.77,757.39 257.59,758.00 260.01,758.00 C263.62,758.00 263.66,757.60 260.59,752.54 C258.22,748.61 258.21,748.55 260.10,746.15 C262.51,743.08 262.52,739.86 260.12,736.90 C258.55,734.96 257.09,734.51 251.12,734.18 L 244.00 733.77 L 244.00 745.89 L 244.00 758.00 L 246.50 758.00 C248.74,758.00 249.00,757.60 249.00,754.06 ZM 285.00 755.50 C285.00,753.14 284.70,753.00 279.50,753.00 C274.30,753.00 274.00,752.86 274.00,750.50 C274.00,748.20 274.37,748.00 278.50,748.00 C282.63,748.00 283.00,747.80 283.00,745.50 C283.00,743.25 282.60,743.00 279.00,743.00 C275.67,743.00 275.00,742.67 275.00,741.00 C275.00,739.27 275.67,739.00 280.00,739.00 C284.67,739.00 285.00,738.83 285.00,736.50 C285.00,734.04 284.87,734.00 277.00,734.00 L 269.00 734.00 L 269.00 746.00 L 269.00 758.00 L 277.00 758.00 C284.87,758.00 285.00,757.96 285.00,755.50 ZM 303.48 756.83 C306.19,755.59 307.39,752.75 306.83,748.85 C306.60,747.18 305.13,745.85 301.75,744.23 C295.04,741.02 295.80,737.21 302.87,738.62 C306.37,739.32 308.00,736.61 305.03,735.02 C300.34,732.51 290.08,735.15 291.38,738.54 C291.66,739.27 291.40,740.03 290.80,740.23 C288.61,740.96 292.07,745.00 297.04,747.52 C303.96,751.03 303.50,753.27 295.85,753.27 C291.32,753.27 289.90,754.72 292.54,756.65 C294.81,758.31 300.04,758.40 303.48,756.83 ZM 330.46 756.65 C333.00,754.79 331.50,752.66 328.24,753.48 C322.23,754.99 316.78,749.16 318.73,743.30 C319.90,739.78 323.57,737.80 327.63,738.50 C329.91,738.90 330.93,738.62 331.36,737.49 C332.26,735.17 327.97,733.62 322.83,734.42 C315.69,735.53 313.00,738.78 313.00,746.32 C313.00,750.24 313.47,751.20 317.00,754.38 C320.12,757.20 321.84,758.00 324.81,758.00 C326.91,758.00 329.45,757.39 330.46,756.65 ZM 355.08 755.08 C357.85,752.30 358.00,751.72 358.00,743.64 C358.00,734.99 357.44,733.51 354.59,734.60 C353.32,735.09 353.00,736.81 353.00,743.04 C353.00,753.26 350.58,756.19 345.22,752.44 C343.22,751.04 343.00,750.03 343.00,742.44 C343.00,734.10 342.97,734.00 340.50,734.00 C338.02,734.00 338.00,734.06 338.00,743.08 C338.00,751.78 338.12,752.28 340.92,755.08 C343.22,757.37 344.74,758.00 348.00,758.00 C351.26,758.00 352.78,757.37 355.08,755.08 ZM 381.82 755.25 C382.12,753.15 381.77,753.00 376.57,753.00 C371.30,753.00 371.00,752.87 371.00,750.50 C371.00,748.26 371.41,748.00 374.88,748.00 C377.89,748.00 378.88,747.56 379.27,746.06 C379.96,743.44 379.32,743.00 374.83,743.00 C371.67,743.00 371.00,742.65 371.00,741.00 C371.00,739.26 371.67,739.00 376.07,739.00 C380.75,739.00 381.11,738.83 380.82,736.75 C380.52,734.67 379.92,734.48 372.75,734.21 L 365.00 733.92 L 365.00 745.29 C365.00,751.55 365.32,756.98 365.71,757.37 C366.09,757.76 369.81,757.95 373.96,757.79 C380.92,757.52 381.52,757.33 381.82,755.25 ZM 405.00 753.00 C405.49,748.63 405.60,748.49 409.25,748.19 C412.19,747.95 413.00,747.46 413.00,745.94 C413.00,744.34 412.29,744.00 409.00,744.00 C405.42,744.00 405.00,743.74 405.00,741.55 C405.00,739.35 405.46,739.08 409.75,738.80 C413.83,738.54 414.55,738.18 414.83,736.21 C415.14,733.96 414.98,733.92 407.33,734.21 C403.02,734.37 399.61,734.84 399.75,735.25 C399.89,735.66 400.00,740.98 400.00,747.07 C400.00,757.98 400.03,758.13 402.25,757.82 C404.11,757.56 404.59,756.72 405.00,753.00 ZM 438.49 755.83 C444.32,751.25 445.25,742.72 440.48,737.57 C437.69,734.56 434.17,733.56 429.50,734.43 C423.83,735.50 420.82,738.81 420.26,744.60 C419.84,748.97 420.13,750.00 422.56,752.89 C427.21,758.42 433.68,759.61 438.49,755.83 ZM 468.60 754.60 C471.59,751.61 472.00,750.58 472.00,746.00 C472.00,741.42 471.59,740.39 468.60,737.40 C464.80,733.60 461.22,733.05 455.60,735.39 C451.22,737.22 449.00,740.55 449.00,745.27 C449.00,752.97 453.96,757.87 461.85,757.96 C464.36,757.99 466.06,757.14 468.60,754.60 ZM 493.67 756.06 C498.70,753.78 500.00,751.60 500.00,745.49 C500.00,741.72 499.46,740.31 497.16,738.01 C494.22,735.07 488.24,733.51 482.44,734.17 L 479.50 734.50 L 479.21 744.93 C479.06,750.67 479.15,755.96 479.43,756.68 C480.19,758.66 488.78,758.28 493.67,756.06 ZM 552.80 752.75 L 553.11 748.00 L 557.05 748.00 C560.33,748.00 561.00,747.66 561.00,746.00 C561.00,744.33 560.33,744.00 557.00,744.00 C553.42,744.00 553.00,743.74 553.00,741.55 C553.00,739.35 553.46,739.08 557.75,738.80 C561.80,738.54 562.55,738.17 562.82,736.25 C563.13,734.08 562.87,734.00 555.07,734.00 L 547.00 734.00 L 547.00 745.33 C547.00,751.57 547.32,756.99 547.71,757.38 C548.10,757.77 549.34,757.95 550.46,757.79 C552.13,757.55 552.55,756.65 552.80,752.75 ZM 585.00 756.05 C585.00,754.44 584.18,754.06 580.25,753.80 C575.90,753.53 575.47,753.27 575.18,750.75 C574.88,748.15 575.09,748.00 578.93,748.00 C582.33,748.00 583.00,747.67 583.00,746.00 C583.00,744.33 582.33,744.00 579.00,744.00 C575.42,744.00 575.00,743.74 575.00,741.55 C575.00,739.35 575.46,739.08 579.75,738.80 C583.80,738.54 584.55,738.17 584.82,736.25 C585.12,734.12 584.81,734.00 578.65,734.00 C568.66,734.00 569.00,733.58 569.00,745.94 C569.00,751.84 569.30,756.97 569.67,757.33 C570.03,757.70 573.63,758.00 577.67,758.00 C584.26,758.00 585.00,757.80 585.00,756.05 ZM 608.00 756.12 C608.00,754.06 605.45,753.04 600.25,753.01 C597.45,753.00 597.00,752.65 597.00,750.50 C597.00,748.20 597.37,748.00 601.50,748.00 C605.29,748.00 606.00,747.69 606.00,746.06 C606.00,744.49 605.19,744.06 601.75,743.81 C598.25,743.55 597.44,743.11 597.19,741.30 C596.90,739.31 597.36,739.08 602.19,738.80 C606.83,738.54 607.54,738.21 607.82,736.25 C608.13,734.08 607.87,734.00 600.07,734.00 L 592.00 734.00 L 592.00 745.33 C592.00,751.57 592.30,756.97 592.67,757.33 C593.03,757.70 596.63,758.00 600.67,758.00 C607.18,758.00 608.00,757.79 608.00,756.12 ZM 632.73 753.60 C635.95,750.08 636.20,749.38 635.76,744.88 C635.50,742.15 634.50,739.10 633.50,738.00 C631.28,735.54 626.00,734.01 619.75,734.01 L 615.00 734.00 L 615.00 746.11 L 615.00 758.23 L 622.11 757.82 C628.87,757.44 629.40,757.23 632.73,753.60 ZM 659.00 753.00 L 659.00 748.00 L 663.95 748.00 L 668.89 748.00 L 669.20 752.75 C669.46,756.80 669.83,757.55 671.75,757.82 C673.98,758.14 674.00,758.01 674.00,746.07 L 674.00 734.00 L 671.50 734.00 C669.20,734.00 669.00,734.36 669.00,738.53 C669.00,743.70 667.88,744.57 662.49,743.56 C659.12,742.93 659.00,742.75 659.00,738.45 C659.00,734.37 658.79,734.00 656.50,734.00 L 654.00 734.00 L 654.00 745.33 C654.00,751.57 654.30,756.97 654.67,757.33 C655.03,757.70 656.16,758.00 657.17,758.00 C658.70,758.00 659.00,757.18 659.00,753.00 ZM 700.43 754.92 C704.49,751.36 705.75,746.79 704.06,741.69 C702.50,736.95 699.85,734.85 694.71,734.27 C689.32,733.66 684.65,735.85 682.52,739.97 C676.32,751.95 690.42,763.72 700.43,754.92 ZM 716.81 753.75 C717.08,750.50 717.46,750.00 719.61,750.00 C722.82,750.00 727.58,747.53 728.38,745.46 C729.60,742.27 728.97,738.28 726.94,736.45 C725.53,735.17 722.88,734.46 718.44,734.18 L 712.00 733.77 L 711.82 736.63 C711.32,744.78 711.25,754.71 711.68,756.31 C712.00,757.49 712.92,758.01 714.34,757.81 C716.05,757.56 716.57,756.71 716.81,753.75 ZM 751.82 755.25 C752.12,753.15 751.77,753.00 746.57,753.00 C741.30,753.00 741.00,752.87 741.00,750.50 C741.00,748.25 741.40,748.00 745.00,748.00 C748.29,748.00 749.00,747.66 749.00,746.06 C749.00,744.54 748.19,744.05 745.25,743.81 C742.24,743.56 741.44,743.06 741.18,741.25 C740.89,739.17 741.25,739.00 745.93,739.00 C750.67,739.00 751.00,738.84 751.00,736.50 C751.00,734.04 750.87,734.00 742.94,734.00 L 734.88 734.00 L 735.07 743.47 C735.39,758.90 734.91,758.13 743.87,757.79 C750.92,757.52 751.52,757.33 751.82,755.25 ZM 527.62 748.46 C530.11,744.66 528.20,741.00 523.72,741.00 C519.71,741.00 518.00,742.51 518.00,746.05 C518.00,750.87 524.91,752.60 527.62,748.46 ZM 228.39 746.43 C228.72,745.56 228.51,743.95 227.91,742.83 C226.84,740.84 226.31,740.82 191.66,741.54 C172.32,741.95 151.10,742.56 144.50,742.90 L 132.50 743.52 L 152.00 744.91 C178.10,746.77 196.59,747.65 213.64,747.84 C225.68,747.98 227.88,747.77 228.39,746.43 ZM 843.97 745.46 C857.42,744.60 868.64,743.70 868.88,743.45 C869.13,743.20 864.65,742.98 858.92,742.96 C853.19,742.95 830.72,742.52 809.00,742.02 C766.37,741.03 765.94,741.07 767.51,746.05 L 768.23 748.32 L 793.87 747.67 C807.97,747.32 830.51,746.32 843.97,745.46 ZM 169.62 704.55 C181.96,700.64 190.29,694.17 195.17,684.72 C197.81,679.59 198.87,666.16 197.05,660.66 C195.46,655.83 188.56,648.35 179.21,641.32 C163.67,629.64 161.00,626.30 161.00,618.55 C161.00,614.74 161.58,613.36 164.57,610.06 C168.80,605.37 173.55,603.58 179.83,604.28 C183.61,604.71 185.06,605.51 187.96,608.78 C189.91,610.97 192.29,613.91 193.26,615.33 C194.82,617.61 195.33,617.78 197.98,616.86 C202.66,615.22 207.00,609.62 207.00,605.19 C207.00,596.88 200.30,593.48 184.00,593.53 C165.91,593.58 150.85,600.24 143.38,611.49 C140.06,616.48 139.62,617.92 139.21,624.97 C138.48,637.61 141.63,642.22 161.13,657.09 C173.45,666.49 177.32,673.40 175.02,681.94 C172.15,692.60 159.68,698.82 149.61,694.61 C145.66,692.96 141.81,689.08 138.34,683.25 C135.33,678.19 132.39,677.70 127.49,681.44 C121.23,686.22 120.46,694.19 125.76,699.27 C134.59,707.72 152.76,709.91 169.62,704.55 ZM 598.00 704.36 C615.87,698.52 626.01,686.34 625.99,670.74 C625.99,667.31 625.52,662.81 624.95,660.74 C623.58,655.82 615.88,647.71 604.03,638.70 C598.83,634.74 593.54,629.97 592.28,628.10 C589.32,623.69 589.17,615.87 591.96,611.29 C595.96,604.74 607.12,601.95 613.59,605.89 C615.28,606.92 617.98,609.85 619.59,612.38 C622.93,617.68 625.96,618.39 630.39,614.91 C639.25,607.94 636.95,597.85 625.74,594.52 C619.28,592.60 606.36,592.59 598.23,594.51 C579.96,598.81 566.99,612.09 567.01,626.45 C567.03,636.85 572.34,644.91 585.50,654.47 C591.42,658.76 599.95,667.12 601.58,670.20 C603.55,673.94 603.32,680.70 601.06,685.68 C597.17,694.25 585.40,698.35 576.83,694.12 C572.66,692.06 570.05,689.21 565.95,682.25 C563.64,678.33 559.68,677.89 555.61,681.09 C545.82,688.79 549.58,700.42 563.31,704.89 C566.71,706.00 571.08,707.10 573.00,707.33 C579.54,708.12 590.48,706.82 598.00,704.36 ZM 374.20 704.88 C383.86,702.83 391.75,697.42 397.35,689.03 C401.13,683.36 397.17,682.11 390.98,687.01 C383.13,693.23 373.28,695.06 368.10,691.26 C364.42,688.57 362.00,683.27 362.00,677.91 L 362.00 673.32 L 369.75 671.76 C391.61,667.39 404.00,657.87 404.00,645.45 C404.00,639.25 401.16,634.38 395.98,631.69 C393.14,630.22 390.66,629.95 382.50,630.23 C369.88,630.66 363.39,633.37 355.43,641.53 C346.15,651.03 341.77,662.73 341.70,678.15 C341.67,685.61 342.05,687.57 344.43,692.45 C347.56,698.84 352.29,702.58 359.80,704.60 C365.80,706.21 367.72,706.25 374.20,704.88 ZM 445.95 704.92 C448.73,704.32 451.00,703.60 451.00,703.31 C451.00,701.75 456.15,651.20 457.04,644.00 C458.88,629.16 458.68,629.16 464.11,643.91 C466.83,651.29 473.12,666.91 478.10,678.64 C489.25,704.88 489.80,705.51 500.98,704.73 C511.91,703.97 513.63,702.93 514.40,696.64 C515.51,687.63 518.07,671.37 523.61,638.28 C526.57,620.55 529.00,605.11 529.00,603.95 C529.00,602.79 527.68,600.53 526.08,598.92 C523.57,596.42 522.39,596.00 517.83,596.01 C507.65,596.04 508.00,595.58 508.00,608.87 C507.99,625.80 502.78,676.06 501.03,675.97 C500.74,675.96 497.25,667.52 493.27,657.22 C475.03,609.99 471.61,601.61 469.92,599.92 C467.21,597.21 460.29,595.70 453.49,596.33 C443.83,597.22 443.95,597.10 444.63,605.35 C445.54,616.43 439.11,655.99 431.58,685.68 C427.79,700.64 428.03,702.18 434.60,704.52 C439.42,706.24 439.73,706.25 445.95,704.92 ZM 664.53 704.91 C672.49,703.44 678.74,700.10 683.82,694.58 C688.83,689.15 690.72,685.07 688.79,683.85 C686.82,682.60 686.33,682.77 682.66,685.99 C675.25,692.50 664.89,694.82 658.93,691.30 C655.45,689.24 653.00,683.54 653.00,677.48 C653.00,673.82 653.33,673.00 654.81,673.00 C658.48,673.00 673.65,668.68 678.50,666.25 C686.13,662.42 688.98,660.11 692.12,655.15 C697.58,646.55 695.39,636.48 687.00,631.56 C684.26,629.96 681.75,629.51 675.50,629.51 C661.11,629.50 650.92,634.72 641.79,646.79 C631.24,660.72 628.97,684.72 637.11,696.16 C639.60,699.65 645.21,703.09 650.95,704.64 C656.76,706.21 657.45,706.22 664.53,704.91 ZM 863.50 702.90 C869.78,700.56 875.46,695.92 879.14,690.11 C882.54,684.76 882.59,684.39 880.02,683.71 C878.73,683.38 876.44,684.41 873.50,686.66 C867.56,691.19 863.05,693.00 857.68,693.00 C851.12,693.00 846.83,689.71 845.24,683.46 C843.04,674.83 843.56,673.77 850.73,672.32 C867.89,668.87 878.56,663.38 883.50,655.45 C885.93,651.56 886.49,649.58 886.47,644.98 C886.43,638.11 884.52,634.82 878.92,631.96 C873.61,629.25 866.90,628.53 859.61,629.89 C837.44,634.01 823.09,654.11 824.19,679.50 C824.50,686.73 825.06,689.37 827.04,692.91 C833.66,704.77 847.96,708.69 863.50,702.90 ZM 230.50 703.12 C232.70,702.11 236.89,698.75 239.81,695.64 C242.73,692.54 245.31,690.00 245.56,690.00 C245.80,690.00 246.00,691.24 246.00,692.75 C246.01,696.50 249.28,701.58 252.91,703.45 C256.60,705.36 262.01,705.44 266.30,703.65 C269.42,702.34 276.00,695.84 276.00,694.06 C276.00,693.58 274.31,693.42 272.23,693.70 C269.41,694.07 267.85,693.69 265.98,692.18 C263.72,690.34 263.51,689.51 263.63,682.83 C263.77,675.49 265.12,666.36 269.19,645.17 C270.94,636.06 271.11,633.69 270.07,633.04 C267.61,631.52 245.66,630.79 238.93,632.01 C221.12,635.22 208.31,648.89 203.62,669.70 C200.03,685.65 203.07,697.74 211.97,702.91 C216.52,705.54 225.01,705.64 230.50,703.12 ZM 308.93 700.24 C322.43,686.17 342.00,649.63 342.00,638.50 C342.00,634.61 337.01,630.00 332.83,630.01 C325.62,630.04 325.50,630.19 325.47,639.80 C325.42,652.41 320.50,666.46 311.29,680.31 L 306.56 687.43 L 305.84 683.97 C305.45,682.06 304.15,671.05 302.96,659.50 C300.71,637.70 299.56,632.91 296.15,631.08 C292.54,629.15 279.05,630.39 277.66,632.79 C277.43,633.18 278.49,638.45 280.02,644.50 C281.55,650.55 284.26,664.50 286.06,675.50 C291.06,706.12 290.43,704.80 299.93,704.94 C303.95,704.99 304.79,704.56 308.93,700.24 ZM 717.60 704.23 C718.21,703.83 718.98,698.80 719.33,693.00 C720.14,679.62 723.50,660.90 725.97,656.06 C731.11,645.99 743.00,642.25 743.00,650.70 C743.00,652.64 743.52,653.00 746.37,653.00 C756.15,653.00 760.68,638.12 752.89,631.56 C751.22,630.15 748.87,629.01 747.67,629.02 C743.34,629.07 737.31,632.84 731.72,639.03 L 726.00 645.34 L 726.00 641.22 C726.00,635.94 724.42,632.51 721.34,631.11 C718.30,629.72 716.41,629.72 710.00,631.09 L 704.90 632.19 L 705.57 638.99 C706.27,646.12 705.48,653.54 701.42,678.14 C698.04,698.56 698.16,701.34 702.50,703.81 C704.72,705.07 715.88,705.38 717.60,704.23 ZM 792.32 699.90 C802.19,688.81 816.74,663.77 821.43,649.79 C824.75,639.92 824.76,635.67 821.49,632.40 C819.35,630.26 818.23,629.94 813.74,630.20 L 808.50 630.50 L 807.87 640.50 C807.06,653.48 802.17,666.66 792.71,681.44 L 789.54 686.39 L 788.85 683.44 C788.48,681.82 787.00,670.68 785.57,658.68 C783.02,637.21 781.66,631.85 778.46,630.62 C775.84,629.62 766.56,629.91 763.15,631.10 C759.37,632.41 759.24,633.74 761.99,642.97 C764.22,650.46 771.40,686.33 772.47,695.33 C773.44,703.50 775.50,705.37 782.82,704.77 C787.92,704.34 788.75,703.92 792.32,699.90 ZM 626.52 567.48 C667.56,561.87 710.18,542.91 736.87,518.39 C754.03,502.63 767.76,480.24 773.61,458.50 C776.06,449.40 776.31,446.80 776.40,429.50 C776.48,414.39 776.12,408.76 774.64,402.00 C772.80,393.63 768.45,380.21 767.10,378.75 C766.72,378.34 766.30,383.29 766.17,389.75 C765.37,428.98 750.20,461.08 719.28,488.97 C699.66,506.67 673.30,520.52 647.50,526.69 C607.66,536.21 572.75,535.23 517.00,523.01 C489.19,516.92 484.17,515.89 472.50,513.90 C442.24,508.74 417.46,507.27 389.00,508.95 C371.68,509.98 349.21,512.55 354.50,512.90 C371.37,514.02 396.20,518.07 413.50,522.53 C429.16,526.57 442.00,530.81 468.50,540.71 C519.15,559.62 544.13,566.29 574.14,568.93 C586.88,570.05 613.06,569.32 626.52,567.48 ZM 467.50 554.58 C459.25,551.66 445.52,546.70 437.00,543.55 C392.07,526.96 362.95,521.04 332.50,522.34 C308.38,523.36 289.08,527.48 270.74,535.51 C264.89,538.07 259.52,540.87 258.81,541.73 C257.70,543.07 257.80,543.21 259.51,542.71 C271.98,539.09 296.60,535.95 317.50,535.32 C352.18,534.28 371.09,536.77 421.00,548.97 C453.73,556.97 468.29,559.77 477.50,559.85 C482.20,559.88 481.61,559.57 467.50,554.58 ZM 268.50 515.88 C306.19,511.61 365.81,497.71 411.44,482.56 C440.93,472.78 494.00,451.11 494.00,448.86 C494.00,448.35 492.31,444.80 490.25,440.96 C485.82,432.73 486.87,432.80 469.77,439.69 C430.19,455.65 361.08,478.68 322.00,488.93 C277.96,500.49 271.73,502.02 254.30,505.58 C234.75,509.58 234.64,509.65 239.87,514.38 C243.90,518.03 247.78,518.24 268.50,515.88 ZM 621.32 499.25 C622.05,478.97 623.54,471.30 628.51,462.42 C632.90,454.56 642.93,445.19 652.65,439.85 C656.84,437.55 663.75,432.41 668.02,428.42 C676.29,420.68 680.47,418.00 684.25,418.00 C689.58,418.00 690.35,422.53 686.44,431.00 C684.52,435.17 680.87,439.46 671.37,448.72 L 658.84 460.94 L 665.97 458.51 C675.37,455.31 683.35,450.33 689.53,443.81 C699.91,432.86 704.01,426.20 713.97,404.00 C717.30,396.57 720.97,389.71 722.13,388.75 C723.28,387.79 725.74,387.00 727.59,387.00 C732.08,387.00 734.47,391.22 733.45,397.34 C731.22,410.66 723.11,430.89 713.48,447.10 C709.85,453.22 707.11,458.44 707.37,458.71 C707.64,458.98 710.65,455.44 714.05,450.85 C719.16,443.96 727.77,427.89 732.73,416.00 L 733.77 413.50 L 734.49 416.25 C735.39,419.68 733.83,428.75 731.08,436.09 C724.33,454.06 709.60,470.26 682.47,489.55 C665.38,501.71 664.00,502.86 664.00,505.04 C664.00,507.48 663.62,507.52 670.63,504.32 C679.09,500.47 685.06,496.72 697.50,487.45 C722.92,468.51 738.32,446.75 745.58,419.49 C747.98,410.49 748.20,408.26 747.76,397.00 C747.05,378.42 742.42,365.83 731.14,351.85 C702.81,316.76 648.42,314.61 621.60,347.53 L 617.26 352.87 L 612.05 346.38 C599.05,330.15 578.59,320.85 555.79,320.80 C544.82,320.78 538.51,322.03 528.79,326.16 C492.78,341.46 479.46,382.66 496.32,426.58 C508.24,457.64 526.18,478.56 559.50,500.27 C569.06,506.50 571.01,508.39 573.66,514.00 C574.74,516.29 574.84,516.07 574.92,511.30 C574.96,508.44 574.46,504.91 573.81,503.47 C573.10,501.92 567.78,497.55 560.72,492.73 C544.79,481.84 529.66,468.74 522.09,459.28 C513.21,448.17 506.08,433.28 505.32,424.28 C505.00,420.42 505.17,416.52 505.70,415.57 C506.47,414.19 507.31,415.62 509.83,422.67 C513.42,432.70 520.70,446.13 525.75,452.02 C531.24,458.44 531.28,456.64 525.85,447.25 C515.63,429.59 507.47,408.32 506.32,396.38 C505.81,391.02 506.00,390.00 507.87,388.13 C509.04,386.96 511.10,386.00 512.44,386.00 C516.72,386.00 519.85,390.00 524.58,401.50 C535.60,428.30 546.08,443.39 559.65,451.99 C564.95,455.35 577.43,460.36 579.11,459.80 C579.73,459.59 577.11,456.86 573.29,453.73 C556.53,440.02 547.60,426.31 551.54,420.30 C554.70,415.48 560.98,417.91 571.50,428.03 C575.35,431.74 583.00,437.67 588.50,441.22 C611.61,456.12 617.00,467.84 617.00,503.22 C617.00,515.95 617.14,517.00 618.85,517.00 C620.55,517.00 620.74,515.61 621.32,499.25 ZM 300.29 486.94 C332.81,478.79 375.05,465.90 416.00,451.61 C439.22,443.51 480.94,427.46 482.29,426.11 C482.75,425.65 481.94,420.82 480.49,415.39 C477.00,402.28 476.31,388.74 478.41,375.01 L 480.02 364.52 L 477.76 362.75 C472.19,358.38 450.90,348.89 440.00,345.91 C429.92,343.16 426.47,342.71 412.00,342.28 C398.11,341.87 393.65,342.13 383.80,343.90 C377.36,345.05 371.87,346.00 371.60,346.00 C371.33,346.00 371.75,344.44 372.55,342.53 C374.08,338.88 374.42,334.27 373.38,331.54 C371.45,326.51 358.62,325.39 350.31,329.53 C344.65,332.35 340.00,338.09 340.00,342.25 C340.00,345.80 343.65,349.79 348.37,351.40 L 352.23 352.72 L 348.24 355.11 C346.04,356.42 341.88,358.85 339.00,360.50 C330.56,365.33 313.07,380.03 305.57,388.59 C287.23,409.53 277.31,431.71 274.80,457.36 C273.90,466.63 273.91,471.46 274.88,479.20 C276.31,490.69 276.70,492.00 278.64,492.00 C279.43,492.00 289.17,489.72 300.29,486.94 ZM 280.43 406.28 C282.39,402.59 283.99,399.10 283.98,398.53 C283.97,397.96 279.91,392.35 274.95,386.07 C269.02,378.55 266.14,374.10 266.54,373.07 C271.77,359.66 267.10,343.21 254.48,330.59 C245.61,321.72 237.95,318.00 228.59,318.00 C223.25,318.01 220.69,318.50 218.19,320.02 C211.57,324.06 209.20,335.51 212.60,347.07 C218.23,366.24 232.92,379.80 249.14,380.80 L 255.79 381.21 L 262.14 391.00 C265.64,396.38 270.19,403.53 272.25,406.89 C274.32,410.25 276.20,413.00 276.44,413.00 C276.67,413.00 278.47,409.98 280.43,406.28 ZM 307.53 371.42 L 311.91 367.84 L 309.79 362.67 C308.63,359.83 306.85,355.16 305.84,352.30 C304.02,347.14 304.03,347.07 306.18,343.41 C310.04,336.87 309.30,329.74 303.18,314.50 C297.64,300.71 292.15,289.82 290.50,289.33 C289.95,289.17 288.83,289.46 288.01,289.98 C286.73,290.78 287.20,292.92 291.27,304.71 C296.33,319.35 296.84,322.00 294.59,322.00 C293.71,322.00 291.00,316.48 287.34,307.25 C282.43,294.84 281.14,292.45 279.25,292.18 C278.01,292.00 276.76,292.45 276.48,293.18 C276.20,293.91 278.20,301.23 280.92,309.46 C285.68,323.85 286.06,326.00 283.88,326.00 C282.82,326.00 281.43,322.97 275.63,308.00 C271.07,296.23 270.64,295.54 268.46,296.38 C267.03,296.92 266.83,297.88 267.29,301.77 C267.92,307.04 276.25,334.61 278.67,339.42 C281.14,344.32 286.12,348.96 290.08,350.02 C293.30,350.89 293.97,351.66 295.86,356.59 C297.04,359.66 298.00,362.57 298.00,363.05 C298.00,364.48 302.10,375.00 302.65,375.00 C302.93,375.00 305.13,373.39 307.53,371.42 ZM 762.17 315.68 C758.90,312.20 743.64,304.83 738.51,304.25 C734.19,303.76 734.00,303.85 734.00,306.35 C734.00,309.55 736.08,310.93 746.00,314.30 C755.07,317.38 756.53,317.74 760.92,317.88 L 764.35 318.00 L 762.17 315.68 ZM 720.27 308.42 C725.89,301.10 728.33,292.10 727.83,280.63 C727.34,269.53 724.35,262.40 716.85,254.45 C709.23,246.37 694.37,240.00 683.16,240.00 C668.24,240.00 649.01,251.70 643.14,264.36 C641.90,267.03 641.02,269.31 641.19,269.42 C641.36,269.54 644.42,270.90 648.00,272.46 C671.60,282.73 690.76,294.10 706.00,306.87 C710.67,310.79 714.95,313.85 715.50,313.67 C716.05,313.50 718.20,311.13 720.27,308.42 ZM 401.50 300.28 C423.25,290.96 438.90,289.12 462.52,293.10 C482.13,296.41 506.01,296.42 520.92,293.13 C554.93,285.63 582.76,267.38 599.49,241.61 C608.66,227.48 612.33,218.82 616.96,200.33 C619.89,188.61 619.82,188.34 614.75,191.82 C599.01,202.61 579.69,206.89 552.35,205.63 C497.21,203.10 488.38,203.54 470.50,209.72 C444.66,218.65 422.78,236.49 405.81,262.50 C400.43,270.73 395.65,279.98 396.38,280.72 C396.67,281.00 399.29,279.21 402.20,276.73 C409.82,270.25 424.92,260.71 436.50,255.06 C461.69,242.78 494.93,235.26 531.50,233.57 L 543.50 233.01 L 533.00 235.60 C470.18,251.05 439.13,263.01 409.00,283.38 C401.63,288.36 380.00,308.92 380.00,310.94 C380.00,311.51 383.04,310.12 386.75,307.85 C390.46,305.57 397.10,302.17 401.50,300.28 ZM 673.45 303.12 C671.61,301.43 651.30,291.13 641.95,287.16 C630.20,282.17 610.53,275.35 602.28,273.43 L 596.07 271.97 L 586.06 279.24 C580.56,283.23 576.05,286.77 576.03,287.10 C576.01,287.44 581.29,288.02 587.75,288.40 C613.03,289.89 642.03,294.88 663.50,301.42 C672.11,304.05 674.99,304.54 673.45,303.12 ZM 757.17 284.87 C762.01,284.25 766.73,283.18 767.67,282.50 C769.22,281.37 769.17,281.16 767.03,280.02 C763.89,278.33 745.27,277.49 741.75,278.87 C738.59,280.11 738.05,283.35 740.75,284.92 C743.04,286.25 746.48,286.24 757.17,284.87 ZM 630.42 263.39 C631.29,263.06 632.00,261.97 632.00,260.98 C632.00,258.95 626.79,256.18 617.80,253.42 C613.12,251.98 611.83,251.90 610.55,252.96 C608.29,254.83 608.62,255.75 612.21,257.61 C614.56,258.82 626.79,263.54 628.67,263.96 C628.76,263.98 629.55,263.73 630.42,263.39 ZM 747.84 255.48 C755.43,251.52 763.00,246.05 763.00,244.51 C763.00,242.39 751.37,245.77 741.44,250.78 C734.65,254.20 732.50,256.26 733.36,258.49 C734.36,261.10 738.88,260.16 747.84,255.48 ZM 645.83 242.15 C646.21,239.48 639.84,232.74 631.57,227.05 C627.74,224.41 626.60,224.02 625.90,225.12 C624.63,227.14 624.74,227.52 627.67,231.17 C634.74,239.96 640.50,245.08 643.00,244.79 C644.76,244.59 645.60,243.80 645.83,242.15 ZM 723.46 235.77 C726.93,231.72 727.95,230.08 732.13,221.80 C734.05,217.99 734.61,214.00 733.21,214.00 C730.58,214.00 715.00,233.18 715.00,236.42 C715.00,241.52 718.79,241.23 723.46,235.77 ZM 667.86 232.11 C668.82,231.50 669.00,230.28 668.48,227.87 C667.39,222.83 659.81,207.97 657.77,206.88 C656.23,206.05 656.00,206.39 656.00,209.45 C656.00,211.39 657.36,217.23 659.03,222.42 C661.83,231.19 662.48,232.16 666.00,232.87 C666.28,232.92 667.11,232.58 667.86,232.11 ZM 696.47 226.05 C697.58,223.91 698.00,220.00 697.98,211.80 C697.97,199.44 697.04,195.89 695.15,200.93 C692.53,207.92 690.79,214.44 689.57,221.83 C688.45,228.60 693.54,231.72 696.47,226.05 ZM 249.36 743.50 C248.31,740.77 249.82,738.85 252.74,739.18 C257.60,739.74 256.69,744.94 251.72,744.98 C250.74,744.99 249.68,744.33 249.36,743.50 ZM 429.32 752.81 C424.44,750.45 424.04,742.33 428.66,739.30 C432.26,736.95 435.60,738.82 436.99,743.95 C438.20,748.45 437.29,751.24 434.04,752.98 C431.83,754.16 432.13,754.17 429.32,752.81 ZM 456.45 751.55 C450.34,745.43 457.54,734.29 464.38,739.29 C467.24,741.38 467.60,747.98 465.02,751.25 C462.34,754.65 459.65,754.74 456.45,751.55 ZM 484.74 753.41 C484.33,753.00 484.00,749.57 484.00,745.78 L 484.00 738.89 L 488.24 739.19 C491.77,739.45 492.71,739.98 493.83,742.32 C496.16,747.20 493.61,752.56 488.49,753.56 C486.84,753.89 485.15,753.82 484.74,753.41 ZM 620.72 753.39 C620.32,752.99 620.00,749.59 620.00,745.83 L 620.00 739.00 L 623.96 739.00 C626.86,739.00 628.21,739.52 628.96,740.93 C630.59,743.97 630.20,749.51 628.25,751.27 C626.16,753.15 621.73,754.40 620.72,753.39 ZM 691.00 753.31 C688.33,752.35 687.00,749.71 687.00,745.37 C687.00,742.11 687.52,740.75 689.22,739.56 C694.14,736.11 699.00,739.31 699.00,746.00 C699.00,751.81 695.58,754.94 691.00,753.31 ZM 717.70 745.36 C717.31,744.98 717.00,743.39 717.00,741.83 C717.00,739.38 717.38,739.00 719.89,739.00 C721.54,739.00 723.03,739.64 723.36,740.50 C724.02,742.23 723.17,745.00 721.97,745.00 C721.53,745.00 720.54,745.24 719.78,745.53 C719.02,745.82 718.08,745.75 717.70,745.36 ZM 363.36 661.14 C364.73,652.61 370.46,642.31 375.82,638.78 C385.78,632.21 390.93,645.80 382.34,656.00 C379.32,659.59 372.07,663.52 366.54,664.56 L 362.70 665.28 L 363.36 661.14 ZM 654.43 661.25 C655.41,655.56 661.65,643.47 665.10,640.57 C668.97,637.31 672.55,636.38 674.62,638.10 C681.99,644.22 675.23,658.15 662.58,662.89 C654.42,665.94 653.64,665.78 654.43,661.25 ZM 846.06 661.25 C849.14,647.59 856.62,637.02 863.21,637.00 C865.97,637.00 869.00,641.03 869.00,644.72 C869.00,652.55 863.31,659.24 853.54,662.90 C845.57,665.88 845.04,665.76 846.06,661.25 ZM 226.26 690.47 C222.00,687.49 220.94,678.16 223.49,666.05 C225.58,656.10 229.79,648.28 234.97,644.70 C238.31,642.41 248.80,642.31 249.66,644.57 C250.40,646.49 247.58,665.23 245.48,672.32 C243.22,679.98 238.95,687.13 235.10,689.72 C231.11,692.40 229.24,692.56 226.26,690.47 ZM 290.00 464.04 C290.00,436.07 302.47,406.44 323.72,383.91 C327.37,380.05 331.64,375.97 333.21,374.85 L 336.08 372.81 L 333.54 377.15 C321.95,397.06 316.58,409.76 313.53,424.50 C311.67,433.53 311.41,449.27 312.96,459.90 C313.55,463.97 313.91,467.39 313.77,467.50 C313.27,467.87 292.07,473.00 291.03,473.00 C290.40,473.00 290.00,469.52 290.00,464.04 ZM 456.00 374.93 C437.26,363.08 421.72,356.14 404.50,351.92 L 397.50 350.21 L 408.29 350.10 C414.64,350.04 422.26,350.65 426.79,351.58 C441.13,354.52 457.47,364.06 463.32,372.91 C466.05,377.03 467.53,381.01 466.32,380.97 C465.87,380.95 461.23,378.24 456.00,374.93 ZM 236.95 371.03 C231.70,368.26 225.23,360.73 221.80,353.38 C220.13,349.82 218.98,346.69 219.23,346.43 C219.49,346.18 221.58,348.88 223.88,352.43 C229.00,360.34 234.33,365.03 243.37,369.55 L 250.27 373.00 L 245.38 372.96 C242.61,372.93 238.96,372.10 236.95,371.03 ZM 710.65 265.34 C709.64,263.98 709.08,262.58 709.43,262.24 C710.41,261.26 713.23,264.60 712.85,266.29 C712.58,267.46 712.06,267.23 710.65,265.34 Z" fill="rgb(253,253,252)"/>
</g>
</svg>